
nColumns=19
nRows=36
DataType=double
version=3
OpenSimVersion=4.4-2022-10-11-798caa840
endheader
time	ground_force_calcn_r_vx	ground_force_calcn_r_vy	ground_force_calcn_r_vz	ground_force_calcn_r_px	ground_force_calcn_r_py	ground_force_calcn_r_pz	ground_force_calcn_r_mx	ground_force_calcn_r_my	ground_force_calcn_r_mz	ground_force_calcn_l_vx	ground_force_calcn_l_vy	ground_force_calcn_l_vz	ground_force_calcn_l_px	ground_force_calcn_l_py	ground_force_calcn_l_pz	ground_force_calcn_l_mx	ground_force_calcn_l_my	ground_force_calcn_l_mz
1.5	0	0	0	0	0	0	0	0	0	-43.8725	30.1184	10.3529	-0.0701645	0	-0.530493	3.07577	-2.11151	-0.725807
1.51	-61.3686	55.0728	-12.4195	-0.147214	0	-0.414789	-0.926491	0.831442	-0.187499	-234.208	287.068	50.6717	-0.152618	0	-0.749478	1.92436	-2.35868	-0.416343
1.52	-268.103	352.328	-70.0072	-0.176555	0	-0.379378	-0.80345	1.05585	-0.209797	-254.136	529.342	90.7937	-0.191684	0	-0.756264	1.45489	-3.03041	-0.519781
1.53	-244.435	525.059	-99.27160000000001	-0.203081	0	-0.381225	-1.00055	2.14925	-0.406352	-56.5648	961.404	100.275	-0.255322	0	-0.752146	-0.0745894	1.26776	0.132228
1.54	-62.6285	749.842	-81.2884	-0.259151	0	-0.395177	-0.0590564	0.707074	-0.076652	3.85555	1228.25	66.7467	-0.275105	0	-0.747648	0.0170544	5.43299	0.295244
1.55	-0.47948	934.0839999999999	-41.4807	-0.285761	0	-0.407408	0.00114325	-2.22719	0.0989049	-173.429	841.234	68.0625	-0.251358	0	-0.74898	-0.919121	4.45828	0.36071
1.56	-100.072	679.5410000000001	-33.7971	-0.271768	0	-0.407627	0.319484	-2.16946	0.107899	-323.441	497.625	73.6921	-0.195089	0	-0.750018	0.0169977	-0.0261515	-0.00387272
1.57	-226.682	410.157	-38.9202	-0.224252	0	-0.401759	0.46875	-0.848154	0.0804822	-331.276	388.647	52.6255	-0.165141	0	-0.745124	0.823317	-0.965901	-0.13079
1.58	-253.22	319.018	-24.9811	-0.194563	0	-0.401901	0.612468	-0.771613	0.0604222	-296.855	384.728	30.5506	-0.169911	0	-0.742267	0.0786002	-0.101867	-0.00808908
1.59	-231.843	333.962	-0.558647	-0.205267	0	-0.408843	1.14227	-1.6454	0.0027524	-234.458	501.575	14.9374	-0.206427	0	-0.739824	-0.914822	1.95707	0.0582836
1.6	-184.581	400.009	7.43337	-0.230253	0	-0.415418	1.01813	-2.20641	-0.0410018	-106.852	744.878	10.4715	-0.248776	0	-0.736661	-0.572868	3.99351	0.0561406
1.61	-120.582	514.832	-26.2007	-0.256072	0	-0.416088	0.465346	-1.98682	0.101113	-0.458881	875.877	29.3641	-0.265837	0	-0.7367010000000001	-0.00213744	4.07978	0.136776
1.62	-59.0324	621.0549999999999	-53.2552	-0.271835	0	-0.416164	0.192125	-2.02127	0.173323	-18.8323	799.611	52.2139	-0.260381	0	-0.73922	-0.0928587	3.94273	0.257457
1.63	-41.7297	635.42	-54.2435	-0.274278	0	-0.416342	0.17214	-2.62118	0.22376	-85.24760000000001	669.853	59.0248	-0.243847	0	-0.7422029999999999	-0.585249	4.59873	0.405222
1.64	-66.28449999999999	589.515	-48.7986	-0.267562	0	-0.414984	0.38384	-3.41376	0.282583	-113.327	602.193	57.8786	-0.231692	0	-0.744179	-1.00753	5.35379	0.514568
1.65	-78.3734	556.597	-52.4893	-0.26185	0	-0.41218	0.537052	-3.81407	0.359682	-102.599	585.112	61.6938	-0.227732	0	-0.745597	-1.01316	5.77792	0.609219
1.66	-61.6087	548.1180000000001	-61.5132	-0.261184	0	-0.409538	0.417756	-3.71667	0.417108	-81.54389999999999	590.373	69.3342	-0.226849	0	-0.746957	-0.833383	6.03364	0.708599
1.67	-45.6803	537.121	-69.3403	-0.260054	0	-0.406932	0.313147	-3.68207	0.475341	-63.1317	614.937	73.03360000000001	-0.22714	0	-0.747551	-0.680276	6.62626	0.786974
1.68	-48.1284	517.667	-75.6283	-0.255619	0	-0.403617	0.378669	-4.07295	0.595035	-47.3319	645.341	70.20310000000001	-0.22749	0	-0.747413	-0.555804	7.57804	0.8243740000000001
1.69	-56.5546	503.218	-78.3449	-0.250727	0	-0.400519	0.530898	-4.72388	0.735451	-43.3557	658.6079999999999	67.37390000000001	-0.225294	0	-0.747714	-0.543914	8.262499999999999	0.845232
1.7	-59.4742	500.509	-77.9363	-0.247764	0	-0.398623	0.655548	-5.51681	0.8590449999999999	-51.4544	652.352	67.5942	-0.220661	0	-0.748579	-0.660413	8.37289	0.8675659999999999
1.71	-58.7659	514.747	-77.3523	-0.246699	0	-0.397885	0.741026	-6.49085	0.975395	-62.268	639.982	68.3618	-0.215484	0	-0.749363	-0.791374	8.13364	0.868822
1.72	-53.3667	542.7910000000001	-77.18470000000001	-0.247523	0	-0.398221	0.740526	-7.53186	1.07103	-69.83540000000001	632.091	69.1626	-0.21126	0	-0.749756	-0.85617	7.74934	0.847922
1.73	-43.7569	569.809	-76.2024	-0.248903	0	-0.399153	0.647854	-8.436439999999999	1.12823	-72.6028	631.544	71.41200000000001	-0.208441	0	-0.74997	-0.831185	7.23015	0.8175519999999999
1.74	-39.5857	584.476	-74.89109999999999	-0.248944	0	-0.39997	0.620769	-9.16554	1.17442	-72.12990000000001	635.851	74.12909999999999	-0.206418	0	-0.749966	-0.760261	6.70197	0.7813330000000001
1.75	-41.6861	590.128	-74.3481	-0.247691	0	-0.400713	0.677503	-9.59104	1.20834	-72.5716	640.1849999999999	74.5167	-0.20442	0	-0.7495849999999999	-0.730096	6.44049	0.749665
1.76	-41.6913	593.476	-74.67100000000001	-0.246604	0	-0.401748	0.677674	-9.64669	1.21375	-75.3544	641.662	71.7683	-0.202467	0	-0.7489209999999999	-0.760107	6.47251	0.723934
1.77	-37.5702	597.707	-74.8745	-0.246166	0	-0.403065	0.596795	-9.494440000000001	1.18936	-77.20740000000001	639.2910000000001	67.0748	-0.201042	0	-0.747919	-0.802924	6.64836	0.697549
1.78	-32.4666	602.665	-73.5938	-0.245789	0	-0.404432	0.502756	-9.332459999999999	1.13962	-76.09569999999999	635.623	62.1063	-0.20028	0	-0.746735	-0.819866	6.84829	0.669142
1.79	-28.5787	606.126	-71.47969999999999	-0.245017	0	-0.405716	0.432141	-9.1653	1.08085	-72.5936	631.852	58.2382	-0.200107	0	-0.74542	-0.807193	7.02577	0.64757
1.8	-26.5226	605.422	-70.14749999999999	-0.243774	0	-0.4067	0.387851	-8.85332	1.02579	-69.1066	625.676	55.766	-0.200093	0	-0.744285	-0.799501	7.23851	0.645162
1.81	-25.1451	600.569	-69.8651	-0.242344	0	-0.407395	0.349536	-8.34835	0.971178	-67.3138	614.04	53.4739	-0.19967	0	-0.743245	-0.811769	7.40499	0.6448660000000001
1.82	-23.5935	592.768	-69.72069999999999	-0.241037	0	-0.408056	0.307723	-7.7313	0.909346	-66.07250000000001	598.55	50.9301	-0.198968	0	-0.7422260000000001	-0.811561	7.35193	0.625569
1.83	-21.5105	583.128	-69.2878	-0.239712	0	-0.408717	0.263823	-7.15197	0.849804	-62.8842	584.837	50.3388	-0.198569	0	-0.741435	-0.756403	7.03471	0.605501
1.84	-19.5765	571.731	-67.9319	-0.238125	0	-0.409523	0.230715	-6.73802	0.800597	-56.2713	574.782	52.6578	-0.198843	0	-0.741008	-0.6459549999999999	6.59809	0.604474
1.85	-18.7168	556.8200000000001	-65.38030000000001	-0.236295	0	-0.410525	0.21815	-6.48993	0.76203	-48.6277	566.5119999999999	55.6224	-0.199596	0	-0.740903	-0.534911	6.2317	0.611853
